<?xml version="1.0" encoding="UTF-8"?>
<svg id="Layer_2" data-name="Layer 2" xmlns="http://www.w3.org/2000/svg" viewBox="0 0 520.41 104.23">
  <defs>
    <style>
      .cls-1 {
        fill: #f7941d;
      }

      .cls-2 {
        fill: #231f20;
      }
    </style>
  </defs>
  <g id="Layer_1-2" data-name="Layer 1">
    <g>
      <g>
        <path class="cls-1" d="M28.84,100.91c-2.3,0-4.47-.39-6.45-1.15-3.88-1.49-7.31-4.51-10.18-8.98-2.79-4.33-5.29-10.27-7.44-17.64-2.19-7.51-3.19-13.68-3.08-18.86,.12-5.37,1.57-9.82,4.31-13.24,2.75-3.43,6.89-5.93,12.31-7.43,2.77-.77,5.39-1.16,7.8-1.16,4.42,0,8.21,1.29,11.29,3.84,4.6,3.82,8.02,10.11,10.46,19.24l.39,1.45-1.39,.56c-5.5,2.2-8.17,3.29-13.63,5.58l-1.72,.72-.55-1.78c-1.41-4.61-2.96-7.79-4.58-9.45-.96-.98-2.08-1.46-3.42-1.46-.61,0-1.28,.1-2,.3-.8,.22-1.45,.53-1.93,.93,.62,5.39,1.8,11.31,3.52,17.63,1.39,5.12,2.99,8.71,4.75,10.68,1.06,1.19,2.3,1.77,3.78,1.77,.61,0,1.28-.1,1.99-.29,.65-.18,1.22-.43,1.7-.73-.22-2.54-.63-5.48-1.21-8.75l-.27-1.53,1.5-.4c5.59-1.5,8.31-2.21,13.9-3.62l1.71-.43,.35,1.73c1.68,8.31,1.36,15.19-.95,20.47-2.36,5.36-7.05,9.05-13.94,10.97-2.47,.69-4.83,1.03-7,1.03Z"/>
        <path class="cls-2" d="M26.11,34.15c4.03,0,7.44,1.16,10.21,3.45,4.31,3.58,7.6,9.72,9.9,18.38-5.49,2.19-8.22,3.31-13.65,5.59-1.5-4.89-3.16-8.27-4.99-10.14-1.28-1.31-2.83-1.96-4.63-1.96-.77,0-1.59,.12-2.45,.36-1.44,.4-2.52,1.05-3.24,1.94,.61,5.77,1.84,12,3.66,18.68,1.47,5.41,3.19,9.2,5.12,11.36,1.39,1.56,3.07,2.33,5.04,2.33,.77,0,1.58-.12,2.44-.35,1.23-.34,2.23-.87,3.01-1.59-.2-2.8-.63-6.07-1.31-9.81,5.54-1.49,8.31-2.21,13.87-3.61,1.63,8.04,1.32,14.52-.85,19.45-2.17,4.93-6.43,8.24-12.85,10.02-2.33,.65-4.51,.97-6.55,.97s-4.04-.34-5.85-1.04c-3.55-1.36-6.67-4.13-9.37-8.31-2.69-4.18-5.12-9.91-7.24-17.2-2.1-7.23-3.12-13.35-3.01-18.35,.11-5,1.42-9.08,3.94-12.22,2.52-3.14,6.34-5.45,11.44-6.86,2.64-.73,5.09-1.09,7.35-1.09m0-3.38c-2.56,0-5.33,.41-8.25,1.22-5.77,1.6-10.2,4.29-13.18,8C1.71,43.71,.14,48.5,0,54.25c-.12,5.35,.91,11.69,3.14,19.37,2.19,7.53,4.76,13.61,7.64,18.08,3.07,4.77,6.77,8.01,11,9.64,2.18,.84,4.55,1.26,7.06,1.26,2.33,0,4.84-.37,7.45-1.1,7.41-2.06,12.46-6.07,15.03-11.91,2.46-5.6,2.82-12.82,1.06-21.48l-.7-3.47-3.43,.86c-5.61,1.41-8.34,2.12-13.93,3.62l-2.99,.81,.55,3.05c.49,2.74,.86,5.23,1.08,7.44-.11,.04-.23,.08-.36,.11-.56,.15-1.08,.23-1.54,.23-1.01,0-1.76-.36-2.52-1.21-1.09-1.22-2.73-3.94-4.38-10-1.58-5.81-2.71-11.28-3.34-16.29,.17-.07,.36-.13,.57-.19,.56-.16,1.08-.24,1.54-.24,.89,0,1.57,.29,2.22,.95,.99,1.01,2.51,3.34,4.17,8.76l1.09,3.57,3.44-1.44c5.45-2.29,8.12-3.38,13.6-5.57l2.78-1.11-.77-2.89c-2.52-9.48-6.13-16.06-11.01-20.11-3.38-2.81-7.54-4.23-12.36-4.23h0Z"/>
      </g>
      <g>
        <path class="cls-1" d="M57.7,91.13c-1.14-5.63-3.11-14.5-5.85-26.37-2.78-12.03-4.93-20.91-6.37-26.41l-.44-1.66,1.67-.41c5.91-1.45,8.81-2.13,14.76-3.48l1.9-.43s.36,4.48,.45,5.58c.41-.93,.9-1.78,1.46-2.54,2.29-3.09,5.02-4.99,8.13-5.65,.9-.19,1.78-.29,2.62-.29,2.27,0,4.29,.7,5.98,2.09,2.15,1.76,3.97,4.61,5.4,8.49,1.35,3.66,2.69,8.74,3.99,15.1l.29,1.44-1.39,.49c-5.46,1.93-8.11,2.89-13.53,4.91l-1.79,.67-.44-1.86c-1.08-4.58-2.31-8.05-3.64-10.3-1.15-1.94-2.25-2.17-2.98-2.17-.25,0-.52,.03-.8,.09-.28,.06-.49,.43-.63,.78l2.49,11.64c2.63,12.28,4.54,20.88,5.84,26.29l.4,1.66-1.67,.38c-5.57,1.27-8.28,1.91-13.8,3.26l-1.71,.42-.35-1.72Z"/>
        <path class="cls-2" d="M76.02,31.16c1.88,0,3.52,.57,4.91,1.71,1.93,1.57,3.55,4.16,4.88,7.77,1.33,3.6,2.63,8.56,3.92,14.86-5.44,1.92-8.16,2.91-13.55,4.92-1.13-4.76-2.4-8.36-3.83-10.77-1.18-1.99-2.66-2.99-4.43-2.99-.38,0-.76,.04-1.17,.13-.94,.21-1.61,.98-2.02,2.31,.45,2.1,.67,3.15,1.12,5.24,.59,2.74,.88,4.11,1.47,6.86,2.59,12.1,4.53,20.88,5.85,26.33-5.54,1.26-8.31,1.91-13.83,3.27-1.11-5.5-3.06-14.31-5.86-26.42-2.81-12.16-4.94-20.98-6.38-26.46,5.88-1.44,8.83-2.13,14.74-3.47,.46,5.72,.69,8.57,1.17,14.28,.12,0,.19,0,.31,.01,.19-.01,.29-.02,.48-.03-.15-5.44,.79-9.54,2.83-12.3,2.04-2.76,4.42-4.43,7.12-5,.79-.17,1.55-.25,2.27-.25m0-3.38h0c-.95,0-1.95,.11-2.97,.32-2.99,.63-5.65,2.25-7.94,4.83l-.21-2.65-3.8,.86c-5.96,1.35-8.86,2.03-14.79,3.48l-3.34,.82,.87,3.32c1.44,5.48,3.58,14.35,6.36,26.36,2.74,11.85,4.71,20.71,5.84,26.32l.7,3.45,3.42-.84c5.52-1.36,8.22-1.99,13.77-3.25l3.34-.76-.8-3.33c-1.3-5.39-3.2-13.97-5.83-26.24l-1.47-6.86-.74-3.46c.26,.16,.61,.49,1.02,1.19,1.24,2.1,2.41,5.41,3.45,9.83l.88,3.72,3.58-1.34c5.41-2.02,8.06-2.98,13.5-4.9l2.77-.98-.59-2.88c-1.34-6.54-2.67-11.56-4.06-15.35-1.56-4.22-3.49-7.24-5.91-9.22-2.01-1.64-4.38-2.47-7.05-2.47h0Z"/>
      </g>
      <g>
        <path class="cls-1" d="M105.12,83.45c-2.88,0-5.4-.84-7.51-2.49-2.79-2.19-4.61-5.53-5.42-9.92-.64-3.49-.28-6.71,1.09-9.58,1.35-2.84,3.45-5.2,6.24-7.01,1.53-1,3.2-1.81,4.99-2.45h-2.31c-3.65,0-6.31,.02-10.93,.08l-1.49,.02-.21-1.47c-.74-5.21-.49-9.83,.74-13.73,1.26-3.99,3.34-7.24,6.19-9.65,2.84-2.4,6.21-3.95,10.01-4.61,1.76-.3,3.45-.46,5.02-.46,3.01,0,5.69,.57,7.96,1.68,3.45,1.7,6.14,4.5,8.01,8.33,1.76,3.62,3.06,8.32,3.88,13.99l2.13,15.62c.96,7.03,1.6,11.61,1.96,14.02l.25,1.67-1.67,.25c-5.54,.83-8.24,1.26-13.76,2.18l-1.81,.3s-.38-4.83-.49-6.11c-.33,.82-.69,1.62-1.11,2.38-2.01,3.71-4.93,5.94-8.68,6.63-1.08,.2-2.12,.3-3.11,.3Zm9.4-26.28c-2.21,.38-3.96,1.13-5.2,2.23-1.04,.93-1.41,2.06-1.16,3.54,.24,1.45,.85,1.84,1.05,1.96,.42,.26,.9,.39,1.48,.39,.25,0,.53-.03,.82-.08,.77-.14,1.55-.71,2.3-1.69,.81-1.07,1.45-2.11,1.91-3.1l-.52-3.37c-.2,.03-.43,.07-.68,.11Zm-8.26-15.92c-.01,2.6,.17,5.58,.54,8.87l.13,1.15c.64-.16,1.3-.3,1.97-.42,1.49-.26,3.25-.46,5.26-.6-.56-3.34-1.42-5.98-2.55-7.86-.77-1.28-1.89-1.98-3.15-1.98-.3,0-.62,.04-.93,.12-.39,.1-.84,.36-1.26,.71Z"/>
        <path class="cls-2" d="M111.56,23.88c2.77,0,5.18,.51,7.22,1.51,3.12,1.54,5.53,4.06,7.23,7.56,1.7,3.5,2.93,8,3.73,13.49,.6,4.41,.91,6.62,1.51,11.03,.25,1.83,.37,2.75,.62,4.58,.94,6.92,1.6,11.6,1.97,14.05-5.52,.83-8.28,1.27-13.79,2.19-.45-5.68-.68-8.52-1.12-14.19-.32,.05-.48,.08-.8,.13-.03,4.41-.93,8.24-2.7,11.5-1.76,3.26-4.25,5.18-7.5,5.77-.98,.18-1.92,.27-2.81,.27-2.5,0-4.65-.71-6.46-2.13-2.46-1.93-4.06-4.89-4.8-8.89-.58-3.14-.27-5.99,.95-8.55,1.22-2.56,3.1-4.67,5.63-6.32,2.54-1.65,5.46-2.76,8.74-3.34,1.85-.32,4.16-.55,6.92-.68-.08-.49-.11-.73-.19-1.22-.59-3.86-1.55-6.89-2.88-9.09-1.07-1.78-2.74-2.8-4.6-2.8-.44,0-.89,.06-1.35,.17-.94,.24-1.84,.88-2.52,1.62-.05,2.86,.13,6.12,.54,9.79-1.06,0-2.01,0-2.9,0-3.79,0-6.46,.02-10.95,.09-.71-4.96-.49-9.29,.68-12.99,1.17-3.7,3.06-6.66,5.67-8.87,2.61-2.21,5.69-3.63,9.2-4.23,1.68-.29,3.26-.43,4.74-.43m-.86,43.12c.35,0,.72-.03,1.11-.1,1.22-.21,2.33-.99,3.35-2.34,1.02-1.34,1.79-2.65,2.3-3.9-.34-2.19-.5-3.28-.84-5.46-.43,.02-1.23,.12-2.38,.32-2.54,.43-4.56,1.32-6.04,2.64-1.48,1.33-2.05,3.02-1.7,5.08,.24,1.46,.85,2.5,1.81,3.11,.69,.44,1.48,.66,2.38,.66m.86-46.49c-1.67,0-3.45,.16-5.31,.48-4.1,.71-7.74,2.38-10.81,4.98-3.09,2.62-5.35,6.13-6.71,10.43-1.31,4.15-1.58,9.02-.8,14.48l.42,2.94,2.97-.04c2.54-.04,4.48-.06,6.33-.07-2.57,1.88-4.55,4.24-5.87,7.03-1.52,3.19-1.93,6.76-1.22,10.61,.88,4.8,2.91,8.48,6.03,10.94,2.41,1.89,5.29,2.85,8.55,2.85,1.09,0,2.24-.11,3.41-.32,3.35-.61,6.11-2.29,8.24-5l.19,2.41,3.63-.61c5.51-.92,8.2-1.35,13.73-2.18l3.34-.5-.51-3.34c-.36-2.38-1-6.96-1.96-14l-.62-4.58-1.51-11.03c-.86-5.95-2.18-10.69-4.04-14.51-2.03-4.18-4.98-7.24-8.78-9.11-2.5-1.23-5.43-1.86-8.71-1.86h0Zm-3.6,21.68c.17-.04,.34-.07,.5-.07,.83,0,1.39,.63,1.71,1.16,.82,1.36,1.48,3.19,1.98,5.46-1.3,.12-2.48,.28-3.53,.46-.07,.01-.14,.02-.21,.04-.27-2.58-.42-4.94-.45-7.06h0Zm2.74,21.44c-.33,0-.48-.07-.58-.13-.04-.02-.19-.23-.29-.81-.18-1.05,.11-1.55,.62-2.01,.81-.72,1.93-1.27,3.35-1.62l.17,1.12c-.38,.75-.88,1.53-1.5,2.34-.47,.61-.92,1-1.25,1.05-.19,.03-.37,.05-.53,.05h0Z"/>
      </g>
      <g>
        <path class="cls-1" d="M134.1,60.02l.29-.5c4.19-7.1,9.75-14.54,16.56-22.12-2.29,.34-3.98,.61-6.72,1.04-4.41,.61-6.54,.92-10.91,1.59l-1.7,.26-2.65-20.04,1.65-.24c11.84-1.73,23.88-3.22,35.79-4.42l1.69-.17,1.66,18.22-.32,.49c-2.61,4-5.48,7.87-8.52,11.49-2.37,2.82-5.12,5.98-8.53,9.79,1.84-.3,3.46-.55,5.85-.91,4.91-.61,7.28-.89,12.13-1.42l1.71-.19,1.77,19.89-1.66,.17c-11.36,1.14-22.84,2.57-34.12,4.23l-1.7,.25-2.28-17.41Z"/>
        <path class="cls-2" d="M166.58,17.27c.58,6.37,.87,9.56,1.45,15.94-2.59,3.97-5.39,7.74-8.4,11.32s-6.54,7.59-10.56,12.04c.05,.43,.07,.64,.12,1.06,3.72-.61,5.58-.91,9.3-1.48,4.82-.6,7.23-.88,12.06-1.41,.59,6.61,.88,9.91,1.47,16.51-11.42,1.15-22.85,2.57-34.2,4.24-.79-6.05-1.19-9.08-1.98-15.13,4.4-7.47,10.47-15.53,18.37-24.06-.05-.46-.07-.69-.12-1.15-.47,.09-.7,.13-1.17,.22-3.58,.53-5.38,.81-8.95,1.38-4.36,.61-6.55,.92-10.9,1.59-.88-6.67-1.32-10.01-2.21-16.68,11.86-1.73,23.79-3.21,35.72-4.41m3.05-3.7l-3.39,.34c-11.93,1.2-24,2.69-35.87,4.43l-3.3,.48,.44,3.3c.88,6.67,1.33,10.01,2.21,16.68l.45,3.41,3.4-.52c4.36-.66,6.49-.97,10.86-1.58h.03s.03,0,.03,0c.78-.13,1.48-.24,2.13-.34-5.51,6.46-10.1,12.79-13.69,18.89l-.59,1,.15,1.15c.79,6.05,1.19,9.08,1.98,15.13l.44,3.4,3.4-.5c11.26-1.66,22.72-3.08,34.05-4.22l3.32-.33-.29-3.32c-.59-6.61-.88-9.91-1.47-16.52l-.31-3.43-3.42,.37c-4.87,.53-7.25,.81-12.11,1.41h-.05s-.05,.01-.05,.01c-.43,.07-.83,.13-1.21,.19,2.04-2.32,3.83-4.39,5.44-6.31,3.09-3.68,6-7.6,8.65-11.65l.64-.98-.11-1.17c-.58-6.38-.87-9.56-1.45-15.94l-.31-3.39h0Z"/>
      </g>
      <g>
        <path class="cls-1" d="M184.61,81.76c-1.92,0-3.76-.08-5.48-.25l-1.52-.14v-1.53c-.03-5.9-.04-8.85-.04-14.75v-1.54s1.53-.14,1.53-.14c4.51-.42,6.93-.63,11.05-.96,.1-.84,.19-1.69,.27-2.54-.04,.03-.09,.06-.13,.1-1.7,1.2-3.4,1.88-5.07,2.02-.26,.02-.52,.03-.77,.03-2.08,0-3.96-.74-5.58-2.2-1.77-1.59-3-4.16-3.79-7.85-2.58-11.8-5.66-23.86-8.37-34.5l-.48-1.9,1.95-.2c6.12-.62,9.12-.89,15.26-1.4l1.45-.12,.33,1.42c1.9,8.16,4.01,17.47,5.9,27.21,0-.02,0-.03,0-.05,1.07-13.03,1.76-21.75,2.14-27.75l.09-1.47,1.47-.1c6.14-.43,9.14-.62,15.3-.94l2-.11-.23,1.99c-1.55,13.4-2.96,27.43-4.31,42.91-.55,6.11-1.3,10.67-2.3,13.92-1.07,3.46-2.75,6.04-4.99,7.69-2.22,1.63-5.22,2.57-9.17,2.89-2.28,.18-4.46,.28-6.5,.28Z"/>
        <path class="cls-2" d="M210.21,13.87c-1.66,14.3-3.07,28.62-4.31,42.96-.53,5.93-1.27,10.45-2.24,13.57-.96,3.12-2.42,5.39-4.37,6.83-1.95,1.43-4.72,2.28-8.31,2.57-2.23,.18-4.35,.27-6.36,.27-1.87,0-3.64-.08-5.32-.24-.02-5.9-.03-8.84-.04-14.74,4.96-.46,7.44-.68,12.4-1.07,.25-2.01,.47-4.06,.64-6.17,.08-.56,.2-1.67,.37-3.34-.25,.02-.38,.03-.64,.05-.36,1.68-1.27,3.03-2.72,4.06-1.45,1.03-2.87,1.6-4.24,1.72-.21,.02-.42,.03-.63,.03-1.66,0-3.14-.59-4.45-1.77-1.48-1.33-2.56-3.64-3.26-6.94-2.54-11.59-5.46-23.08-8.39-34.57,6.09-.61,9.13-.89,15.23-1.4,2.83,12.14,5.52,24.33,7.63,36.62,.35-.03,.52-.04,.87-.07,.29-3.86,.44-5.79,.74-9.65,1-12.26,1.74-21.52,2.14-27.78,6.1-.43,9.16-.62,15.27-.94m3.81-3.58l-3.99,.21c-6.17,.33-9.17,.51-15.33,.95l-2.94,.21-.19,2.95c-.25,3.98-.64,9.15-1.19,15.98-1.19-5.52-2.4-10.79-3.53-15.65l-.66-2.84-2.91,.24c-6.15,.51-9.15,.79-15.29,1.41l-3.9,.39,.97,3.8c2.71,10.62,5.78,22.66,8.36,34.45,.85,4.03,2.26,6.9,4.3,8.73,.26,.23,.52,.45,.79,.65l-2.65,.25v3.08c.01,5.9,.02,8.85,.04,14.75v3.06s3.06,.29,3.06,.29c1.77,.17,3.67,.25,5.64,.25,2.08,0,4.32-.1,6.64-.28,4.27-.35,7.56-1.4,10.03-3.22,2.54-1.86,4.43-4.74,5.6-8.55,1.04-3.37,1.82-8.04,2.37-14.26,1.35-15.47,2.75-29.49,4.3-42.87l.46-3.97h0Z"/>
      </g>
      <g>
        <path class="cls-1" d="M227.58,67.37c-.03-13.63-.12-23.9-.27-31.4-.08-3.88-.28-10.01-.66-20.5-.18-4.95-.32-9.06-.36-10.99l-.04-1.68,1.68-.04c11.61-.3,23.38-.45,34.99-.45h3.59s-.36,18.15-.36,18.15h-1.67c-3.26-.04-5.91-.06-8.4-.06-3.46,0-6.65,.03-11.31,.1l.09,10.09c6.69-.33,10.5-.47,17.73-.67l1.77-.05-.31,16.36-1.72-.07c-7.09-.29-10.83-.4-17.4-.53,.03,6,.08,13.01,.18,21.35l.02,1.68-1.68,.03c-5.68,.09-8.45,.16-14.11,.35l-1.74,.06v-1.74Z"/>
        <path class="cls-2" d="M262.91,4c.63,0,1.25,0,1.88,0-.11,5.91-.17,8.86-.29,14.76-3.27-.03-5.91-.04-8.41-.04-4.06,0-7.72,.04-13.02,.12,.05,5.41,.07,8.12,.12,13.53,7.77-.39,11.66-.54,19.45-.76-.1,5.15-.14,7.72-.24,12.87-7.66-.31-11.49-.42-19.16-.56,.02,6.49,.08,14.19,.18,23.09-5.66,.09-8.49,.16-14.14,.35-.03-13.37-.12-23.85-.27-31.43-.09-4.23-.32-11.09-.66-20.53-.21-5.71-.32-9.37-.36-10.96,11.66-.3,23.27-.44,34.93-.44m0-3.38c-11.62,0-23.4,.15-35.01,.45l-3.36,.09,.07,3.36c.04,1.94,.18,6.06,.36,11.02,.39,10.49,.59,16.62,.66,20.47,.15,7.5,.24,17.77,.27,31.37v3.48s3.49-.12,3.49-.12c5.66-.19,8.42-.26,14.08-.35l3.36-.06-.04-3.36c-.08-7.53-.14-13.99-.17-19.61,5.54,.11,9.21,.23,15.63,.49l3.45,.14,.07-3.45c.1-5.15,.15-7.72,.24-12.87l.07-3.54-3.53,.1c-6.58,.18-10.34,.32-16.01,.59-.02-2.34-.04-4.29-.06-6.66,3.78-.05,6.6-.07,9.62-.07,2.34,0,4.93,.01,8.38,.04l3.34,.03,.07-3.34c.12-5.91,.18-8.86,.29-14.76l.07-3.44h-3.44s-1.89,0-1.89,0h0Z"/>
      </g>
      <g>
        <path class="cls-1" d="M282.34,68.97c-5.64-.17-8.41-.23-14.07-.31l-1.74-.02,.08-1.74c.41-8.99,.73-17.94,.95-26.6,.28-10.73,.59-22.9,.66-34.93v-1.49s1.49-.17,1.49-.17c6.12-.71,9.11-1.03,15.26-1.64l1.95-.19-.1,1.96c-.65,12.64-1.2,25.53-1.69,36.9-.42,9.8-.76,18.5-1.05,26.61l-.06,1.68-1.68-.05Z"/>
        <path class="cls-2" d="M285.14,3.74c-.63,12.3-1.16,24.61-1.69,36.92-.41,9.5-.76,18.38-1.05,26.62-5.64-.17-8.46-.23-14.1-.31,.38-8.41,.71-17.29,.95-26.63,.3-11.64,.59-23.31,.66-34.97,6.08-.71,9.12-1.03,15.23-1.63m3.57-3.74l-3.9,.38c-6.15,.61-9.15,.93-15.29,1.64l-2.97,.34-.02,2.99c-.08,11.99-.39,24.16-.66,34.9-.22,8.64-.54,17.58-.95,26.56l-.16,3.48,3.49,.05c5.65,.08,8.4,.14,14.05,.31l3.36,.1,.12-3.36c.28-8.09,.64-17.04,1.05-26.59,.49-11.38,1.05-24.28,1.69-36.89l.2-3.92h0Z"/>
      </g>
      <g>
        <path class="cls-1" d="M308.32,71.1c-.54,0-1.1-.02-1.66-.05-6.92-.41-12.13-3.32-15.5-8.65-3.29-5.21-4.72-12.63-4.26-22.07,.48-9.74,2.67-16.88,6.69-21.82,3.82-4.69,9.08-7.07,15.64-7.07,.56,0,1.13,.02,1.71,.05,7.53,.46,13.12,3.51,16.6,9.09,3.33,5.34,4.55,12.87,3.63,22.39-.91,9.4-3.46,16.59-7.58,21.37-3.86,4.48-9,6.76-15.28,6.76Zm-.62-42.29c-.75,0-1.49,.33-1.64,.52-.74,1.48-.9,5.19-1.04,8.46-.05,1.12-.1,2.24-.17,3.31-.29,4.41,.02,7.71,.94,9.8,.77,1.75,2.09,2.62,4.15,2.75,.1,0,.2,0,.29,0h0c.5,0,.96-.08,1.39-.25,.8-3.74,1.38-7.8,1.72-12.09,.35-4.4,.03-7.66-.95-9.71-.85-1.78-2.31-2.67-4.57-2.8h-.12Z"/>
        <path class="cls-2" d="M309.23,13.13c.53,0,1.07,.02,1.61,.05,6.98,.42,12.1,3.22,15.27,8.3,3.17,5.07,4.27,12.2,3.38,21.34-.89,9.14-3.31,15.94-7.17,20.44-3.55,4.13-8.2,6.17-14,6.17-.51,0-1.03-.02-1.56-.05-6.39-.38-11.08-2.98-14.17-7.87-3.09-4.89-4.45-11.91-4-21.08,.45-9.23,2.53-16.18,6.31-20.84,3.48-4.28,8.28-6.45,14.33-6.45m.99,42.23c1.04,0,2-.26,2.87-.79,.9-4.02,1.55-8.38,1.93-13.1,.38-4.71,.01-8.24-1.11-10.57-1.12-2.33-3.12-3.59-6-3.76-.07,0-.15,0-.22,0-1.24,0-2.71,.57-3.12,1.39-1.22,2.42-1.12,7.93-1.42,12.48-.31,4.72,.05,8.25,1.08,10.59,1.03,2.34,2.89,3.59,5.59,3.76,.13,0,.27,.01,.4,.01m-.99-45.6h0c-7.1,0-12.8,2.59-16.95,7.7-4.26,5.23-6.57,12.69-7.06,22.8-.48,9.79,1.04,17.55,4.52,23.05,3.67,5.81,9.33,8.99,16.82,9.43,.59,.04,1.19,.05,1.76,.05,6.8,0,12.37-2.47,16.56-7.34,4.35-5.06,7.03-12.56,7.98-22.31,.97-10.04-.29-17.71-3.88-23.45-3.79-6.06-9.82-9.39-17.93-9.88-.61-.04-1.22-.06-1.82-.06h0Zm-1.83,20.79c.1-.02,.2-.04,.29-.04,2.07,.12,2.75,.96,3.18,1.85,.58,1.22,1.19,3.74,.78,8.84-.3,3.8-.8,7.42-1.46,10.78-.05,0-.1,0-.15,0-1.66-.1-2.28-.77-2.71-1.75-.55-1.26-1.14-3.85-.8-9.01,.07-1.1,.12-2.24,.17-3.35,.11-2.48,.25-5.76,.71-7.32h0Z"/>
      </g>
      <g>
        <path class="cls-1" d="M381.63,77.95c-8.29-1.25-12.35-1.82-20.66-2.86l-1.53-.19,.06-1.54c.25-6.75,.39-12.75,.43-17.86-.06,.25-.59,2.29-.59,2.29-1.07,4.14-2.3,9.23-3.68,15.14l-.34,1.47-1.5-.18c-8.41-.98-12.52-1.41-20.93-2.18l-1.57-.14,.04-1.58c.19-8.57,.26-17.82,.21-27.51-.04-9.75-.2-18.8-.47-26.9l-.06-1.9,1.89,.16c6.46,.55,9.61,.85,16.06,1.52l1.53,.16-.07,5.68c-.19,8.98-.42,17.17-.71,24.36-.02,.47-.04,.95-.06,1.41,2.23-10.25,4.47-19.94,6.78-29.32l.35-1.44,1.48,.17c5.41,.62,8.04,.94,13.43,1.64l1.51,.2-.04,1.52c-.27,9.81-.68,19.79-1.21,29.83,.58-2.61,1.2-5.35,1.87-8.21,2.21-9.52,3.97-16.74,5.11-20.88l.39-1.43,1.47,.21c6.45,.91,9.59,1.38,16.01,2.4l1.9,.3-.55,1.85c-5.09,17.16-10.03,34.86-14.65,52.59l-.38,1.47-1.5-.23Z"/>
        <path class="cls-2" d="M332.77,15.86c6.42,.55,9.62,.85,16.03,1.52-.02,1.66-.03,2.49-.05,4.14-.19,9.43-.44,17.54-.71,24.31-.27,6.77-.63,12.73-1.06,17.89,.37,.04,.55,.06,.92,.1,3.13-15.2,6.48-30.35,10.18-45.42,5.36,.61,8.04,.94,13.4,1.64-.43,15.51-1.17,30.9-2.19,46.38,.37,.05,.55,.07,.92,.12,1.23-6.44,2.98-14.59,5.27-24.46,2.29-9.87,3.99-16.81,5.1-20.82,6.4,.9,9.59,1.38,15.98,2.39-5.19,17.48-10.07,35.01-14.67,52.64-8.27-1.25-12.42-1.83-20.71-2.87,.28-7.5,.43-14.09,.44-19.73,0-3.49,.03-6.31,.08-8.47-.31-.04-.46-.06-.76-.09-.5,1.93-.91,3.39-1.18,4.34-.33,1.16-1,3.81-2.06,7.89-1.05,4.08-2.29,9.14-3.69,15.18-8.39-.98-12.58-1.42-20.98-2.18,.18-8.27,.26-17.45,.22-27.56-.05-10.11-.21-19.09-.47-26.95m-3.5-3.69l.13,3.8c.27,8.06,.42,17.09,.47,26.85,.04,9.7-.03,18.94-.21,27.47l-.07,3.15,3.14,.29c8.4,.77,12.51,1.2,20.89,2.18l3,.35,.69-2.94c.2-.88,.41-1.74,.6-2.58-.03,.84-.06,1.69-.09,2.56l-.11,3.09,3.07,.39c8.3,1.04,12.35,1.6,20.62,2.86l3,.45,.77-2.94c4.63-17.73,9.56-35.41,14.64-52.54l1.1-3.69-3.8-.6c-6.44-1.02-9.59-1.49-16.04-2.4l-2.94-.41-.79,2.86c-.72,2.6-1.68,6.4-2.83,11.21,.14-3.84,.27-7.65,.37-11.44l.08-3.05-3.03-.39c-5.4-.7-8.04-1.02-13.45-1.64l-2.95-.34-.71,2.89c-.96,3.92-1.92,7.9-2.86,11.96,.07-2.58,.13-5.23,.18-7.95l.05-4.17,.03-3.08-3.06-.32c-6.46-.67-9.62-.97-16.09-1.52l-3.79-.32h0Z"/>
      </g>
      <g>
        <path class="cls-1" d="M411.27,83.52c-1.65,0-3.43-.17-5.3-.51-6.53-1.19-11.15-4.6-13.74-10.15-2.53-5.4-2.97-13.03-1.31-22.67,1.7-9.9,4.79-16.78,9.43-21.03,3.61-3.31,8.11-4.99,13.38-4.99,1.66,0,3.41,.17,5.21,.5,6.9,1.27,11.6,4.47,13.97,9.49,2.29,4.84,2.63,11.58,1.04,20.6l-.08,.44,.14,1.67-1.98-.15c-9.67-.75-14.64-1.07-23.83-1.52-.43,3-.42,5.53,.01,7.52,.52,2.39,1.62,2.88,2.53,3.05,.36,.07,.76,.1,1.18,.1,.18,0,.37,0,.56-.02,.29-.02,.56-.05,.81-.1,.76-2.31,1.47-4.85,2.12-7.55l.38-1.57,1.59,.31c5.49,1.08,8.18,1.62,13.67,2.79l1.75,.37-.47,1.72c-1.47,5.39-3.31,9.8-5.47,13.12-2.24,3.44-5.12,5.9-8.55,7.29-2.07,.84-4.44,1.27-7.03,1.27Zm-1.6-35.62c2.73,.13,4.67,.24,7.43,.41,.18-4.02-.72-6.24-2.7-6.6-.3-.06-.62-.08-.96-.08-.31,0-.63,.02-.97,.07-.45,.06-.88,.16-1.29,.3-.64,2.37-1.15,4.35-1.52,5.91Z"/>
        <path class="cls-2" d="M413.72,25.87c1.56,0,3.19,.16,4.9,.47,6.36,1.17,10.63,4.06,12.75,8.55,2.12,4.49,2.41,11.03,.9,19.59-.07-.01-.11-.02-.18-.04,.02,.24,.03,.36,.05,.6-10.18-.79-15.25-1.11-25.39-1.59-.7,3.9-.76,7.11-.21,9.64,.55,2.53,1.84,3.98,3.87,4.35,.46,.08,.96,.13,1.49,.13,.22,0,.44,0,.67-.02,.78-.05,1.46-.19,2.03-.42,.88-2.58,1.69-5.41,2.44-8.52,5.46,1.07,8.19,1.63,13.65,2.79-1.44,5.26-3.2,9.47-5.26,12.64-2.06,3.17-4.66,5.38-7.77,6.65-1.88,.77-4.01,1.14-6.4,1.14-1.56,0-3.23-.16-5-.49-6-1.09-10.15-4.13-12.52-9.2-2.37-5.07-2.79-12.29-1.17-21.66,1.61-9.37,4.55-16.08,8.9-20.07,3.29-3.02,7.39-4.55,12.24-4.55m4.94,24.23c.62-6.1-.7-9.45-3.95-10.05-.4-.07-.82-.11-1.26-.11-.38,0-.78,.03-1.19,.08-.88,.12-1.71,.36-2.47,.73-1.08,3.99-1.82,6.91-2.2,8.74,4.43,.21,6.65,.33,11.08,.6m-4.94-27.6c-5.7,0-10.59,1.83-14.52,5.43-4.93,4.51-8.18,11.71-9.95,21.99-1.72,9.98-1.23,17.94,1.44,23.67,2.84,6.07,7.87,9.8,14.97,11.09,1.97,.36,3.86,.54,5.61,.54,2.81,0,5.39-.47,7.67-1.39,3.76-1.53,6.9-4.2,9.33-7.94,2.25-3.47,4.17-8.04,5.68-13.59l.94-3.45-1.44-.31,2.41,.19-.3-3.43,.04-.22c1.65-9.38,1.27-16.45-1.17-21.62-2.62-5.54-7.73-9.05-15.19-10.43-1.9-.35-3.76-.53-5.52-.53h0Zm-1.16,20.89s.09-.01,.14-.02c.26-.04,.51-.05,.74-.05s.45,.02,.65,.06c.84,.15,1.21,1.47,1.31,3.15-1.25-.07-2.39-.14-3.61-.2,.23-.89,.48-1.86,.77-2.93h0Zm-.65,20.8c-.32,0-.62-.02-.88-.07-.31-.06-.83-.15-1.18-1.75-.32-1.46-.38-3.27-.17-5.4,1.51,.07,2.91,.15,4.24,.22l-.15,.62c-.55,2.26-1.13,4.4-1.75,6.37-.03,0-.07,0-.1,0h0Z"/>
      </g>
      <g>
        <path class="cls-1" d="M444.22,89.89c-5.63-1.3-8.38-1.91-14.02-3.1l-1.72-.37,.44-1.7c1.42-5.54,3.5-14.38,6.19-26.29,2.72-12.06,4.65-20.99,5.73-26.56l.33-1.69,1.68,.36c6.03,1.29,8.97,1.94,14.98,3.33l1.9,.44s-1.65,4.23-2.05,5.28c.8-.68,1.64-1.25,2.51-1.7,2.39-1.24,4.75-1.87,7.01-1.87,.97,0,1.93,.12,2.86,.35,3.38,.83,5.75,2.64,7.05,5.37,1.2,2.52,1.61,5.89,1.23,10.01-.37,3.92-1.33,8.94-2.95,15.35l-.36,1.43-1.47-.17c-5.84-.66-8.69-.96-14.52-1.52l-1.9-.18,.41-1.86c1.01-4.6,1.41-8.26,1.17-10.86-.24-2.65-1.5-3.28-2.57-3.53-.04,0-.08-.01-.12-.01-.21,0-.5,.16-.82,.44l-2.81,11.56c-2.97,12.19-4.98,20.77-6.16,26.21l-.36,1.67-1.67-.38Z"/>
        <path class="cls-2" d="M442.5,32.19c5.99,1.28,8.98,1.94,14.95,3.32-2.08,5.34-3.12,8.02-5.18,13.37,.11,.06,.16,.09,.27,.15,.18,.08,.27,.11,.45,.19,2.24-4.96,4.89-8.24,7.96-9.83,2.16-1.12,4.24-1.68,6.23-1.68,.84,0,1.66,.1,2.46,.3,2.87,.71,4.86,2.2,5.93,4.46,1.07,2.26,1.43,5.31,1.07,9.13-.36,3.83-1.33,8.86-2.9,15.1-5.83-.66-8.74-.96-14.55-1.52,1.05-4.78,1.46-8.57,1.21-11.38-.25-2.8-1.54-4.48-3.86-5.03-.17-.04-.34-.06-.5-.06-.78,0-1.56,.42-2.35,1.26-.51,2.08-.76,3.13-1.27,5.21-.66,2.72-.99,4.09-1.66,6.81-2.93,12.02-4.98,20.77-6.17,26.26-5.61-1.29-8.42-1.92-14.04-3.11,1.39-5.44,3.46-14.22,6.2-26.34,2.75-12.18,4.66-21.05,5.74-26.61m-2.66-4.02l-.66,3.38c-1.07,5.54-3,14.45-5.72,26.51-2.68,11.87-4.76,20.7-6.18,26.25l-.87,3.41,3.44,.73c5.63,1.2,8.38,1.8,13.99,3.1l3.34,.77,.72-3.35c1.17-5.41,3.18-13.97,6.15-26.17l1.66-6.81,.85-3.51c.23,.27,.41,.75,.48,1.62,.22,2.44-.17,5.92-1.14,10.35l-.82,3.72,3.8,.36c5.83,.56,8.67,.85,14.49,1.51l2.93,.33,.72-2.86c1.64-6.49,2.61-11.59,2.99-15.61,.42-4.49-.03-8.05-1.38-10.9-1.51-3.17-4.33-5.34-8.17-6.29-1.06-.26-2.16-.39-3.27-.39-2.01,0-4.08,.44-6.17,1.3l.98-2.53-3.8-.88c-6.02-1.39-8.96-2.05-15.01-3.34l-3.36-.72h0Z"/>
      </g>
      <g>
        <path class="cls-1" d="M492.57,102.55c-2.37,0-4.85-.36-7.37-1.08-5.84-1.66-9.95-4.81-12.23-9.35-2.26-4.51-2.57-10.26-.92-17.06l.36-1.47,1.5,.2c4.92,.65,7.51,1.01,12.13,1.7-2-.96-3.61-1.98-4.85-3.08-2.38-2.11-3.81-4.56-4.23-7.28-.41-2.58-.14-5.6,.79-9,.93-3.39,2.62-6.2,5.02-8.36,2.41-2.17,5.39-3.57,8.86-4.18,1.18-.21,2.42-.31,3.67-.31,2.37,0,4.87,.38,7.46,1.12,4.62,1.32,8.28,3.18,10.87,5.51,2.69,2.42,4.33,5.64,4.88,9.58,.53,3.81,.02,8.42-1.55,14.12l-.41,1.48-1.51-.26c-4.4-.77-6.93-1.19-10.7-1.8,1.32,.74,2.42,1.51,3.3,2.3,2.34,2.1,3.65,4.39,3.89,6.81,.22,2.21-.16,4.84-1.12,7.83-1.14,3.53-3.03,6.39-5.62,8.5-2.55,2.08-5.59,3.39-9.02,3.88-1.05,.15-2.12,.23-3.2,.23Zm-4.04-24.92c-.43,2.2-.38,3.94,.14,5.17,.45,1.06,1.5,1.82,3.23,2.32,.9,.26,1.9,.41,3,.45,.17-.32,.33-.65,.48-.99,.28-.61,.53-1.28,.75-2,.46-1.5,.11-2.17-.19-2.54-.31-.38-1.37-1.38-4.67-2.49-.9-.3-1.75-.61-2.55-.92l-.19,1Zm6.33-17.07c-.45,.81-1.06,2.89-1.3,3.73-.31,1.07-.45,1.96-.41,2.63,.01,.16,.04,.65,.72,1.29,.34,.33,1.2,.97,3.15,1.64,1.19,.41,2.29,.82,3.3,1.24l.13-.55c.69-2.88,.76-5.13,.21-6.68-.48-1.34-1.88-2.35-4.16-3-.56-.16-1.2-.28-1.64-.3Z"/>
        <path class="cls-2" d="M495.31,44.95c2.21,0,4.54,.35,6.99,1.05,4.4,1.26,7.81,2.99,10.21,5.14,2.39,2.15,3.84,5.01,4.34,8.56,.5,3.55-.01,8.03-1.51,13.44-5.3-.92-7.95-1.36-13.24-2.2,.77-3.21,.83-5.76,.15-7.65-.67-1.89-2.44-3.25-5.29-4.06-.67-.19-1.61-.37-2.28-.37-.31,0-.56,.04-.7,.13-.79,.51-1.53,3.08-2.04,4.82-.37,1.27-.53,2.34-.47,3.21,.06,.87,.47,1.67,1.24,2.41,.77,.73,2.03,1.42,3.76,2.02,4.63,1.6,8.02,3.3,10.05,5.12,2.03,1.82,3.14,3.73,3.34,5.72,.2,1.99-.15,4.37-1.05,7.14-1.05,3.24-2.75,5.81-5.08,7.71-2.33,1.9-5.06,3.07-8.19,3.51-.97,.14-1.96,.21-2.96,.21-2.22,0-4.52-.34-6.91-1.02-5.39-1.54-9.11-4.34-11.19-8.48-2.08-4.14-2.36-9.44-.78-15.91,5.27,.7,7.91,1.07,13.18,1.85-.49,2.55-.42,4.59,.24,6.15,.65,1.55,2.09,2.64,4.32,3.29,1.23,.35,2.59,.53,4.11,.53,.12,0,.24,0,.36,0,.36-.64,.7-1.3,1.01-1.98,.31-.68,.59-1.42,.83-2.21,.52-1.68,.35-3.05-.49-4.1-.84-1.05-2.68-2.1-5.45-3.03-4.19-1.4-7.4-2.97-9.49-4.82-2.09-1.85-3.32-3.94-3.68-6.28-.37-2.34-.12-5.11,.75-8.29,.85-3.07,2.35-5.6,4.52-7.55,2.17-1.95,4.85-3.22,8.02-3.77,1.09-.19,2.22-.29,3.37-.29m0-3.38c-1.35,0-2.68,.11-3.96,.34-3.79,.66-7.05,2.21-9.7,4.59-2.64,2.38-4.5,5.46-5.52,9.17-1,3.62-1.28,6.89-.83,9.71,.43,2.74,1.72,5.23,3.85,7.4-1.48-.2-3.07-.42-5.01-.68l-3.01-.4-.72,2.95c-1.75,7.21-1.4,13.34,1.05,18.22,2.5,4.98,6.97,8.42,13.28,10.22,2.68,.76,5.31,1.15,7.83,1.15,1.16,0,2.31-.08,3.44-.24,3.74-.53,7.05-1.96,9.85-4.24,2.85-2.32,4.92-5.44,6.16-9.29,1.05-3.26,1.45-6.04,1.2-8.52-.22-2.2-1.16-4.29-2.81-6.23,1.29,.22,2.69,.46,4.35,.75l3.02,.53,.82-2.95c1.64-5.93,2.16-10.77,1.6-14.81-.61-4.35-2.44-7.92-5.43-10.6-2.79-2.51-6.67-4.48-11.53-5.88-2.73-.78-5.4-1.18-7.92-1.18h0Zm-.47,25.18c-.01-.29,.02-.91,.34-1.99,.16-.54,.44-1.52,.72-2.32,.05,.01,.09,.02,.14,.04,1.19,.34,2.68,.95,3.03,1.95,.26,.73,.45,2.05,.03,4.37-.49-.18-1-.37-1.53-.55-1.75-.6-2.38-1.12-2.53-1.27-.12-.12-.18-.2-.2-.23h0Zm-.96,17.03c-.54-.07-1.05-.17-1.51-.3-.82-.23-1.85-.66-2.14-1.35-.23-.54-.42-1.52-.19-3.24,.23,.08,.47,.16,.71,.24,3.15,1.05,3.88,1.93,3.89,1.94,.06,.07,.06,.43-.11,.99-.19,.61-.4,1.19-.64,1.71h0Z"/>
      </g>
    </g>
  </g>
</svg>